<?xml version="1.0" encoding="UTF-8" standalone="no"?>
<!-- Generator: Adobe Illustrator 25.2.0, SVG Export Plug-In . SVG Version: 6.00 Build 0)  -->

<svg
   version="1.1"
   id="Aspose.GIS"
   x="0px"
   y="0px"
   viewBox="0 0 330 330"
   xml:space="preserve"
   sodipodi:docname="aspose_gis-for-python-via-net.svg"
   inkscape:version="1.2.1 (9c6d41e410, 2022-07-14)"
   width="330"
   height="330"
   xmlns:inkscape="http://www.inkscape.org/namespaces/inkscape"
   xmlns:sodipodi="http://sodipodi.sourceforge.net/DTD/sodipodi-0.dtd"
   xmlns="http://www.w3.org/2000/svg"
   xmlns:svg="http://www.w3.org/2000/svg"><defs
   id="defs6568" /><sodipodi:namedview
   id="namedview6566"
   pagecolor="#ffffff"
   bordercolor="#000000"
   borderopacity="0.25"
   inkscape:showpageshadow="2"
   inkscape:pageopacity="0.0"
   inkscape:pagecheckerboard="0"
   inkscape:deskcolor="#d1d1d1"
   showgrid="false"
   showguides="true"
   inkscape:zoom="3.0216606"
   inkscape:cx="138.66547"
   inkscape:cy="186.15591"
   inkscape:window-width="1920"
   inkscape:window-height="1018"
   inkscape:window-x="-6"
   inkscape:window-y="-6"
   inkscape:window-maximized="1"
   inkscape:current-layer="Aspose.GIS"><sodipodi:guide
     position="30.446834,327.02151"
     orientation="0,-1"
     id="guide13310"
     inkscape:locked="false" /><sodipodi:guide
     position="273.35962,193.65114"
     orientation="1,0"
     id="guide14766"
     inkscape:locked="false" /></sodipodi:namedview>
<style
   type="text/css"
   id="style6530">
	.st0{fill-rule:evenodd;clip-rule:evenodd;fill:#FFFFFF;}
	.st1{fill-rule:evenodd;clip-rule:evenodd;fill:#A4C547;}
	.st2{fill:#A4C547;}
	.st3{opacity:0.7;fill:#FFFFFF;}
	.st4{fill:#A5C547;}
	.st5{fill:#FFFFFF;}
</style>
<g
   id="_x2E_NET"
   transform="translate(0,44)">
	<path
   id="XMLID_8_"
   class="st0"
   d="m 180.46,87.48 c -25.78,0 -47.67,9.07 -65.69,27.2 -18.12,18.02 -27.18,39.93 -27.18,65.72 0,25.79 9.06,47.65 27.18,65.56 6.65,6.78 13.85,12.3 21.61,16.56 H 23.59 c -1.8,-0.11 -3.55,-0.62 -5.23,-1.52 -2.81,-1.35 -4.22,-4 -4.22,-7.94 V 23.62 c 0.22,-2.03 0.67,-3.77 1.35,-5.24 1.46,-2.82 4.17,-4.22 8.1,-4.22 h 229.47 l 1.52,0.34 c 1.35,0.23 2.53,0.56 3.55,1.01 2.93,1.35 4.39,4.05 4.39,8.11 V 136.49 C 258.26,128.7 252.75,121.43 245.97,114.7 227.74,96.55 205.9,87.48 180.46,87.48 Z" />
	<path
   id="XMLID_2_"
   class="st1"
   d="m 180.46,87.48 c 25.44,0 47.28,9.07 65.51,27.2 6.78,6.74 12.29,14 16.55,21.79 V 23.62 c 0,-4.06 -1.46,-6.76 -4.39,-8.11 -1.01,-0.45 -2.2,-0.79 -3.55,-1.01 l -1.52,-0.34 H 23.59 c -3.94,0 -6.64,1.41 -8.1,4.22 -0.68,1.46 -1.13,3.21 -1.35,5.24 v 229.45 c 0,3.94 1.41,6.59 4.22,7.94 1.69,0.9 3.43,1.41 5.23,1.52 h 112.79 c -7.76,-4.26 -14.96,-9.78 -21.61,-16.56 -18.12,-17.91 -27.18,-39.76 -27.18,-65.56 0,-25.8 9.06,-47.7 27.18,-65.72 18.01,-18.14 39.91,-27.21 65.69,-27.21 z m 78.68,-83.8 c 2.48,0.45 4.39,1.07 5.74,1.86 5.63,2.7 8.44,7.6 8.44,14.7 v 160.18 c 0,25.68 -9.12,47.54 -27.36,65.56 -18.23,18.25 -40.07,27.37 -65.51,27.37 H 20.21 c -2.7,0 -5.52,-0.67 -8.44,-2.03 -5.63,-2.93 -8.44,-7.88 -8.44,-14.87 V 20.24 c 0,-2.82 0.73,-5.63 2.19,-8.45 2.7,-5.63 7.6,-8.45 14.69,-8.45 h 236.23 z"
   style="fill:#fecd47;fill-opacity:1" />
	<g
   id="g6536">
		<path
   class="st2"
   d="m 60.21,64.52 h 21.54 v 29.39 c -3.52,1.15 -6.91,1.96 -10.15,2.44 -3.24,0.48 -6.75,0.72 -10.51,0.72 -8.86,0 -15.7,-2.62 -20.5,-7.87 -4.8,-5.25 -7.21,-12.64 -7.21,-22.2 0,-9.42 2.71,-16.8 8.13,-22.12 5.42,-5.33 12.88,-7.99 22.38,-7.99 6.11,0 11.9,1.17 17.38,3.52 l -3.36,7.97 c -4.75,-2.19 -9.5,-3.28 -14.25,-3.28 -6.25,0 -11.18,1.96 -14.81,5.89 -3.63,3.92 -5.45,9.29 -5.45,16.1 0,7.15 1.63,12.59 4.91,16.32 3.27,3.72 7.97,5.59 14.11,5.59 3.1,0 6.41,-0.39 9.93,-1.16 V 72.73 H 60.21 Z"
   id="path6534"
   style="fill:#fecd47;fill-opacity:1" />
	</g>
	<g
   id="g6550">
		<polygon
   class="st3"
   points="120.41,181.27 182.41,156.47 244.4,181.27 182.41,206.07 "
   id="polygon6538" />
		<polygon
   class="st3"
   points="120.41,191.07 182.41,166.27 244.4,191.07 182.41,215.87 "
   id="polygon6540" />
		<polygon
   class="st3"
   points="120.41,201.07 182.41,176.27 244.4,201.07 182.41,225.87 "
   id="polygon6542" />
		<g
   id="g6548">
			<path
   class="st4"
   d="m 182.41,124.61 c -10.16,0 -18.39,8.23 -18.39,18.39 0,10.16 18.72,36.44 18.72,36.44 0,0 18.06,-26.28 18.06,-36.44 0,-10.16 -8.24,-18.39 -18.39,-18.39 z m 0.4,27.42 c -5.77,0 -10.45,-4.68 -10.45,-10.45 0,-5.77 4.68,-10.45 10.45,-10.45 5.77,0 10.45,4.68 10.45,10.45 0,5.77 -4.68,10.45 -10.45,10.45 z"
   id="path6544"
   style="fill:#fecd47;fill-opacity:1" />
			<path
   class="st5"
   d="m 182.41,129.67 c -8.29,0 -15,6.72 -15,15 0,8.29 15.27,29.72 15.27,29.72 0,0 14.73,-21.44 14.73,-29.72 0,-8.29 -6.72,-15 -15,-15 z m 0.33,22.36 c -4.71,0 -8.53,-3.82 -8.53,-8.53 0,-4.71 3.82,-8.53 8.53,-8.53 4.71,0 8.53,3.82 8.53,8.53 -0.01,4.71 -3.83,8.53 -8.53,8.53 z"
   id="path6546" />
		</g>
	</g>
</g>
<g
   id="g6553"
   transform="translate(0,44)">
</g>
<g
   id="g6555"
   transform="translate(0,44)">
</g>
<g
   id="g6557"
   transform="translate(0,44)">
</g>
<g
   id="g6559"
   transform="translate(0,44)">
</g>
<g
   id="g6561"
   transform="translate(0,44)">
</g>
<g
   id="g6563"
   transform="translate(0,44)">
</g>
<g
   id="g3116"
   transform="translate(38.836607,3.702567)"><g
     id="_x2E_NET_1_">
	<g
   id="g3010">
		
		<g
   id="g3008">
			
			
			
		</g>
	</g>
	<g
   id="g3040">
		
		
		<g
   id="g3024">
			
			<g
   id="g3022">
				
				
			</g>
		</g>
		<g
   id="g3034">
			
			
			
			
		</g>
		
		
	</g>
</g><g
     id="_x2E_NET-7">
	<g
   transform="matrix(0.85865,0,0,0.861355,-1.832157,40.201435)"
   id="g3045">
		<path
   class="st4"
   d="M 41.8,66.3 M 48.5,45.7 H 41.8"
   id="path3043"
   style="fill:#ffcd38" />
	</g>
	<circle
   class="st5"
   cx="222.39999"
   cy="55.299999"
   r="55"
   id="circle3047"
   style="fill:#672572" />
	<g
   id="prefix__XMLID_2_"
   transform="translate(5.989551,-0.731589)">
		<path
   id="prefix__XMLID_3_"
   class="st2"
   d="m 229.9,42.1 c 0.5,-0.4 0.8,-1 0.8,-1.8 0,-0.7 -0.2,-1.2 -0.6,-1.6 -0.3,-0.3 -0.9,-0.7 -1.6,-0.9 -0.7,-0.3 -1.1,-0.5 -1.3,-0.7 -0.3,-0.2 -0.3,-0.5 -0.3,-0.9 0,-0.3 0.2,-0.7 0.4,-0.9 0.3,-0.3 0.7,-0.3 1.1,-0.3 0.8,0 1.4,0.2 2,0.6 v -1.4 c -0.5,-0.3 -1.2,-0.4 -1.9,-0.4 -0.9,0 -1.6,0.3 -2.2,0.7 -0.6,0.5 -0.9,1.1 -0.9,1.8 0,0.7 0.2,1.2 0.5,1.5 0.3,0.3 0.9,0.7 1.5,0.9 0.7,0.3 1.2,0.6 1.4,0.8 0.3,0.3 0.3,0.5 0.3,0.9 0,0.8 -0.5,1.2 -1.6,1.2 -0.9,0 -1.5,-0.3 -2.2,-0.9 v 1.4 c 0.6,0.3 1.4,0.5 2.1,0.5 1.1,0.3 1.8,0 2.5,-0.5 z"
   style="fill:#ffffff" />
		<path
   id="prefix__XMLID_29_"
   class="st2"
   d="m 242.8,42.6 h 1.4 v -7.4 h 2 V 34 h -2 v -1.4 c 0,-1.2 0.5,-1.8 1.4,-1.8 0.3,0 0.7,0.1 0.9,0.3 v -1.3 c -0.3,-0.1 -0.6,-0.2 -1,-0.2 -0.8,0 -1.4,0.3 -1.9,0.7 -0.6,0.5 -0.9,1.3 -0.9,2.2 v 1.4 h -1.3 v 1.2 h 1.4 z"
   style="fill:#ffffff" />
		<path
   id="prefix__XMLID_30_"
   class="st2"
   d="m 198.9,31.8 c 0.3,0 0.4,-0.1 0.7,-0.3 0.2,-0.2 0.3,-0.4 0.3,-0.7 0,-0.3 -0.1,-0.4 -0.3,-0.6 -0.2,-0.2 -0.4,-0.3 -0.7,-0.3 -0.3,0 -0.4,0.1 -0.6,0.3 -0.2,0.2 -0.3,0.4 -0.3,0.6 0,0.3 0.1,0.5 0.3,0.7 0.2,0.2 0.3,0.3 0.6,0.3 z"
   style="fill:#ffffff" />
		<path
   id="prefix__XMLID_31_"
   class="st2"
   d="m 205.8,42.9 c 0.9,0 1.7,-0.2 2.4,-0.6 V 41 c -0.7,0.5 -1.4,0.8 -2.1,0.8 -0.9,0 -1.6,-0.3 -2.1,-0.9 -0.5,-0.6 -0.8,-1.4 -0.8,-2.4 0,-1 0.3,-1.9 0.9,-2.5 0.5,-0.6 1.3,-0.9 2.1,-0.9 0.8,0 1.4,0.3 2,0.7 v -1.4 c -0.6,-0.3 -1.3,-0.4 -2,-0.4 -1.4,0 -2.5,0.4 -3.2,1.3 -0.9,0.9 -1.2,2 -1.2,3.4 0,1.3 0.3,2.3 1.1,3.1 0.6,0.6 1.6,1.1 2.9,1.1 z"
   style="fill:#ffffff" />
		<path
   id="prefix__XMLID_34_"
   class="st2"
   d="m 254.8,34.7 h 0.3 c 0.2,0 0.3,0.2 0.5,0.5 l 0.3,0.7 h 0.5 L 256,35.1 c -0.2,-0.3 -0.3,-0.5 -0.5,-0.5 0.3,-0.1 0.4,-0.2 0.5,-0.3 0.2,-0.2 0.2,-0.3 0.2,-0.5 0,-0.3 -0.1,-0.4 -0.3,-0.5 C 255.7,33.1 255.5,33 255,33 h -0.9 v 2.9 h 0.4 v -1.2 z m 0,-1.4 h 0.3 c 0.3,0 0.4,0.1 0.5,0.2 0.1,0.1 0.2,0.2 0.2,0.3 0,0.3 -0.2,0.5 -0.6,0.5 h -0.4 z"
   style="fill:#ffffff" />
		<path
   id="prefix__XMLID_35_"
   class="st2"
   d="m 248.4,40.3 c 0,1.7 0.8,2.6 2.2,2.6 0.5,0 0.9,-0.1 1.3,-0.3 v -1.2 c -0.3,0.2 -0.5,0.3 -0.9,0.3 -0.4,0 -0.8,-0.1 -1,-0.3 -0.2,-0.3 -0.3,-0.7 -0.3,-1.2 v -4.8 h 2.1 v -1.3 h -2.1 v -2.6 c -0.5,0.2 -0.9,0.3 -1.4,0.4 V 34 h -1.4 v 1.2 h 1.4 z"
   style="fill:#ffffff" />
		<path
   id="prefix__XMLID_40_"
   class="st2"
   d="m 255.2,36.7 c 0.7,0 1.2,-0.3 1.6,-0.7 0.4,-0.4 0.7,-0.9 0.7,-1.6 0,-0.7 -0.3,-1.2 -0.7,-1.6 -0.4,-0.4 -0.9,-0.6 -1.6,-0.6 -0.7,0 -1.2,0.3 -1.6,0.7 -0.4,0.4 -0.7,1 -0.7,1.6 0,0.7 0.3,1.2 0.7,1.6 0.4,0.5 1,0.6 1.6,0.6 z m -1.3,-3.6 c 0.4,-0.4 0.9,-0.6 1.4,-0.6 0.5,0 1,0.2 1.4,0.6 0.4,0.4 0.6,0.9 0.6,1.4 0,0.5 -0.2,1.1 -0.6,1.4 -0.4,0.4 -0.9,0.6 -1.4,0.6 -0.5,0 -1,-0.2 -1.4,-0.6 -0.4,-0.4 -0.6,-0.9 -0.6,-1.4 0,-0.5 0.1,-1.1 0.6,-1.4 z"
   style="fill:#ffffff" />
		<path
   id="prefix__XMLID_41_"
   class="st2"
   d="m 198.2,34 h 1.4 v 8.6 h -1.4 z"
   style="fill:#ffffff" />
		<path
   id="prefix__XMLID_44_"
   class="st2"
   d="m 219.5,42.9 c 1.3,0 2.4,-0.4 3.1,-1.3 0.8,-0.9 1.2,-2 1.2,-3.3 0,-1.3 -0.3,-2.5 -1.1,-3.3 -0.7,-0.8 -1.7,-1.2 -3,-1.2 -1.3,0 -2.4,0.3 -3.1,1.1 -0.9,0.9 -1.3,2 -1.3,3.5 0,1.3 0.3,2.4 1.1,3.1 0.8,0.9 1.8,1.4 3.1,1.4 z m -1.9,-7.1 c 0.5,-0.6 1.2,-0.9 2,-0.9 0.9,0 1.5,0.3 2,0.9 0.5,0.6 0.8,1.4 0.8,2.6 0,1 -0.3,1.9 -0.7,2.5 -0.5,0.6 -1.2,0.9 -2,0.9 -0.9,0 -1.5,-0.3 -2.1,-0.9 -0.5,-0.6 -0.8,-1.4 -0.8,-2.4 0,-1.3 0.2,-2.1 0.8,-2.7 z"
   style="fill:#ffffff" />
		<path
   id="prefix__XMLID_47_"
   class="st2"
   d="m 239.2,41.6 c 0.8,-0.9 1.2,-2 1.2,-3.3 0,-1.3 -0.3,-2.5 -1.1,-3.3 -0.7,-0.8 -1.7,-1.2 -3,-1.2 -1.3,0 -2.4,0.3 -3.1,1.1 -0.9,0.9 -1.3,2 -1.3,3.5 0,1.3 0.3,2.4 1.1,3.1 0.8,0.9 1.8,1.3 3.1,1.3 1.4,0.1 2.4,-0.4 3.1,-1.2 z m -5.8,-3.3 c 0,-1.1 0.3,-2 0.9,-2.6 0.5,-0.6 1.2,-0.9 2,-0.9 0.9,0 1.5,0.3 2,0.9 0.5,0.6 0.8,1.4 0.8,2.6 0,1 -0.3,1.9 -0.7,2.5 -0.5,0.6 -1.2,0.9 -2,0.9 -0.8,0 -1.5,-0.3 -2.1,-0.9 -0.7,-0.6 -0.9,-1.4 -0.9,-2.5 z"
   style="fill:#ffffff" />
		<path
   id="prefix__XMLID_48_"
   class="st2"
   d="m 219.1,63.8 h 11.4 V 60.5 H 219.1 V 49.9 h 12.3 v -3.3 h -16.1 v 31.6 h 16.8 v -3.3 h -13 z"
   style="fill:#ffffff" />
		<path
   id="prefix__XMLID_49_"
   class="st2"
   d="m 235.6,49.9 h 9.1 v 28.3 h 3.7 V 49.9 h 9.1 v -3.3 h -21.9 z"
   style="fill:#ffffff" />
		<path
   id="prefix__XMLID_50_"
   class="st2"
   d="m 175,73.7 c -0.7,0 -1.3,0.3 -1.7,0.8 -0.5,0.5 -0.7,1.1 -0.7,1.8 0,0.7 0.3,1.3 0.7,1.8 0.5,0.5 1,0.8 1.7,0.8 0.7,0 1.3,-0.3 1.8,-0.8 0.5,-0.5 0.8,-1.1 0.8,-1.8 0,-0.7 -0.3,-1.3 -0.8,-1.8 -0.5,-0.5 -1,-0.8 -1.8,-0.8 z"
   style="fill:#ffffff" />
		<path
   id="prefix__XMLID_51_"
   class="st2"
   d="m 212.6,34.3 c -0.4,0.3 -0.8,0.9 -0.9,1.4 v -1.8 h -1.4 v 8.6 h 1.4 v -4.3 c 0,-1 0.3,-1.8 0.7,-2.4 0.3,-0.5 0.9,-0.8 1.4,-0.8 0.4,0 0.9,0.1 1,0.3 v -1.4 c -0.2,-0.1 -0.4,-0.1 -0.9,-0.1 -0.4,0 -0.9,0.2 -1.3,0.5 z"
   style="fill:#ffffff" />
		<path
   id="prefix__XMLID_52_"
   class="st2"
   d="m 184.2,32.2 h 0.1 l 4.4,10.4 h 0.7 l 4.5,-10.4 -0.1,10.4 h 1.5 v -12 h -1.8 l -4.4,9.8 -4.3,-9.8 h -1.9 v 12 h 1.4 z"
   style="fill:#ffffff" />
		<path
   id="prefix__XMLID_53_"
   class="st2"
   d="M 204.7,73.3 187.8,46.6 h -4.9 v 31.6 h 3.8 V 51.1 l 17.2,27.1 h 4.5 V 46.6 h -3.7 z"
   style="fill:#ffffff" />
	</g>
</g></g></svg>
